HIERARCHY
ROOT hip
{
	OFFSET 0.000000 0.000000 0.000000 
	CHANNELS 6 Xposition Yposition Zposition Xrotation Zrotation Yrotation
	JOINT abdomen
	{
		OFFSET 0.000000 3.402643 0.000000 
		CHANNELS 3 Xrotation Zrotation Yrotation
		JOINT chest
		{
			OFFSET 0.000000 8.438565 -0.680529 
			CHANNELS 3 Xrotation Zrotation Yrotation
			JOINT neck
			{
				OFFSET 0.000000 10.207942 -0.272212 
				CHANNELS 3 Xrotation Zrotation Yrotation
				JOINT head
				{
					OFFSET 0.000000 3.130431 0.000000 
					CHANNELS 3 Xrotation Zrotation Yrotation
					End Site
					{
						OFFSET 0.000000 3.130435 0.000000 
					}
				}
			}
			JOINT lCollar
			{
				OFFSET 3.470700 6.669187 -0.816635 
				CHANNELS 3 Yrotation Zrotation Xrotation
				JOINT lShldr
				{
					OFFSET 3.198488 0.000000 0.000000 
					CHANNELS 3 Zrotation Yrotation Xrotation
					JOINT lForeArm
					{
						OFFSET 10.139888 0.000000 0.000000 
						CHANNELS 3 Yrotation Zrotation Xrotation
						JOINT lHand
						{
							OFFSET 8.370511 0.000000 0.000000 
							CHANNELS 3 Zrotation Yrotation Xrotation
							End Site
							{
								OFFSET 4.083176 0.000000 0.000000 
							}
						}
					}
				}
			}
			JOINT rCollar
			{
				OFFSET -3.470700 6.669187 -0.816635 
				CHANNELS 3 Yrotation Zrotation Xrotation
				JOINT rShldr
				{
					OFFSET -3.198488 0.000000 0.000000 
					CHANNELS 3 Zrotation Yrotation Xrotation
					JOINT rForeArm
					{
						OFFSET -10.139888 0.000000 0.000000 
						CHANNELS 3 Yrotation Zrotation Xrotation
						JOINT rHand
						{
							OFFSET -8.370511 0.000000 0.000000 
							CHANNELS 3 Zrotation Yrotation Xrotation
							End Site
							{
								OFFSET -4.083176 0.000000 0.000000 
							}
						}
					}
				}
			}
		}
	}
	JOINT lThigh
	{
		OFFSET 5.308129 -1.633274 1.361059 
		CHANNELS 3 Xrotation Zrotation Yrotation
		JOINT lShin
		{
			OFFSET -2.041588 -20.007561 0.000000 
			CHANNELS 3 Xrotation Zrotation Yrotation
			JOINT lFoot
			{
				OFFSET 0.000000 -19.190928 -1.224953 
				CHANNELS 3 Xrotation Yrotation Zrotation
				End Site
				{
					OFFSET 0.000000 -2.449906 4.627600 
				}
			}
		}
	}
	JOINT rThigh
	{
		OFFSET -5.308129 -1.633274 1.361059 
		CHANNELS 3 Xrotation Zrotation Yrotation
		JOINT rShin
		{
			OFFSET 2.041588 -20.007561 0.000000 
			CHANNELS 3 Xrotation Zrotation Yrotation
			JOINT rFoot
			{
				OFFSET 0.000000 -19.190928 -1.224953 
				CHANNELS 3 Xrotation Yrotation Zrotation
				End Site
				{
					OFFSET 0.000000 -2.449906 4.627600 
				}
			}
		}
	}
}
MOTION
Frames: 19
Frame Time: 0.033333
11.120641 44.650158 43.606438 0.635068 1.767470 -87.421524 51.976822 2.543015 10.773134 -20.839844 0.000000 0.000000 -48.438744 13.306867 2.414050 8.586096 -4.084739 0.307924 -4.754608 -0.109225 -0.002657 -104.508865 -30.453638 40.871964 -11.545498 7.338746 15.035215 -19.171661 12.370095 -29.850122 4.754608 0.109225 -0.002676 106.076462 36.860184 28.005222 2.340370 -0.164814 -6.051215 11.328025 -2.565413 -19.111698 -0.632851 14.186666 -36.974579 -4.602268 21.520147 -28.184683 31.266199 53.890099 -52.467499 -9.161826 -23.938377 -33.463078 26.654081 18.662243 -4.915292 -5.013867 31.461029 -3.510265 
11.069436 44.669689 43.474510 0.752247 1.601425 -87.293167 52.000748 2.857178 11.027221 -20.839844 0.000000 0.000000 -48.322495 15.952988 4.975494 8.586096 -4.084739 0.307924 -4.754608 -0.109225 -0.002657 -104.678818 -30.032530 40.727962 -11.621653 7.543879 15.195277 -19.072786 12.512493 -29.632414 4.754608 0.109225 -0.002676 105.942467 36.567955 27.811317 2.340140 -0.166999 -5.943816 11.146859 -2.684733 -19.152956 -0.270856 13.352982 -31.089911 -5.577289 22.728376 -24.912146 24.192837 45.106537 -45.927795 -8.713058 -23.693686 -33.801163 26.515926 18.729141 -5.142076 -5.057968 31.890188 -3.507077 
11.009263 44.654385 43.496147 0.820577 1.454929 -87.683998 52.017597 3.109645 11.351056 -20.839844 0.000000 0.000000 -47.751877 20.142719 8.929790 8.586096 -4.084739 0.307924 -4.754608 -0.109225 -0.002657 -104.657585 -29.791588 40.465389 -11.485200 7.250605 15.329014 -18.540119 12.763980 -29.189131 4.754608 0.109225 -0.002676 105.812271 36.291435 27.629572 2.340099 -0.167397 -5.924289 11.192529 -2.986315 -19.314823 0.382520 13.091606 -30.315517 -5.637588 23.120630 -24.381634 22.927116 44.113525 -44.636425 -8.613491 -23.661423 -33.661015 26.626152 18.809771 -4.898423 -5.062741 31.955416 -3.710089 
10.953584 44.606350 43.652916 0.849821 1.279156 -88.447609 52.132580 3.415746 11.630822 -20.839844 0.000000 0.000000 -46.403942 25.868170 14.404186 8.586096 -4.084739 0.307924 -4.754608 -0.109225 -0.002657 -104.561638 -29.785677 40.245583 -11.061903 6.651733 15.279565 -17.943144 12.944502 -28.855907 4.754608 0.109225 -0.002676 105.739037 36.159718 27.525562 2.340265 -0.165807 -6.002398 11.387100 -3.459699 -19.598288 1.466769 13.363926 -33.507278 -5.434223 22.850084 -26.175781 25.961580 49.763203 -46.702019 -8.820594 -23.799900 -33.167000 26.964006 18.777342 -4.290141 -5.113015 31.730768 -3.790474 
10.920434 44.537731 43.929985 0.791140 1.015528 -89.380341 52.385548 3.743837 11.772165 -20.839844 0.000000 0.000000 -43.848087 32.605530 21.251371 8.586096 -4.084739 0.307924 -4.754608 -0.109225 -0.002657 -104.520248 -29.919773 40.210777 -10.410086 6.176347 15.046137 -17.672125 12.847308 -28.959875 4.754608 0.109225 -0.002676 105.748123 36.086452 27.498014 2.330616 -0.164185 -6.031716 11.452633 -3.816398 -19.694073 2.658290 13.819539 -40.547092 -4.529971 22.350813 -29.604826 35.791374 60.567726 -55.402374 -9.170179 -24.141121 -32.463211 27.451204 18.561798 -3.471181 -5.171346 31.300745 -3.672040 
10.922593 44.469120 44.314293 0.625052 0.742143 -90.372635 52.700077 3.949381 11.722587 -20.839844 0.000000 0.000000 -39.960426 39.399029 28.939825 8.586096 -4.084739 0.307924 -4.754608 -0.109225 -0.002657 -104.559921 -29.988031 40.392822 -9.727585 6.129347 14.820134 -17.863077 12.519286 -29.592745 4.754608 0.109225 -0.002676 105.879730 36.016003 27.499277 2.339995 -0.158626 -5.875273 11.256790 -3.723339 -19.339510 4.141438 14.238182 -48.183071 -4.281775 22.347277 -32.690857 56.617088 69.876472 -74.903648 -9.669783 -24.581644 -31.651783 27.855577 18.135445 -2.596404 -5.146363 30.720730 -3.366533 
10.963609 44.417385 44.787712 0.322285 0.634756 -91.383041 52.936783 3.904779 11.549088 -20.839844 0.000000 0.000000 -35.172047 45.232746 36.673756 8.586096 -4.084739 0.307924 -4.754608 -0.109225 -0.002657 -104.693939 -29.928297 40.758545 -9.229046 6.493658 14.701173 -18.310339 12.295614 -30.576099 4.754608 0.109225 -0.002676 106.023125 35.933414 27.476475 2.358836 -0.166488 -5.582309 10.943267 -3.174222 -18.643156 5.617367 14.105226 -52.961369 -4.823742 23.157570 -33.802616 78.947441 73.629333 -95.761101 -10.401403 -25.190277 -30.784506 28.029118 17.635986 -1.747965 -4.936250 30.074907 -2.952781 
11.033540 44.393112 45.328758 -0.166030 0.742184 -92.433792 53.075756 3.621869 11.324484 -20.839844 0.000000 0.000000 -30.324326 49.477341 43.597904 8.586096 -4.084739 0.307924 -4.754608 -0.109225 -0.002657 -104.912102 -29.867901 41.231586 -8.960153 6.982011 14.621205 -18.784687 12.394561 -31.662725 4.754608 0.109225 -0.002676 106.019455 35.939892 27.455833 2.368037 -0.163102 -5.308703 10.853580 -2.580472 -18.114967 6.221700 13.437217 -55.222797 -5.122097 23.636421 -33.568890 -89.725685 106.243179 73.015366 -11.300164 -26.016951 -29.951635 27.897778 17.239775 -0.968836 -4.413986 29.455040 -2.750553 
11.111669 44.398911 45.919365 -0.839952 0.917870 -93.470482 53.254662 3.232629 11.048283 -20.839844 0.000000 0.000000 -26.300707 51.980103 49.026699 8.586096 -4.084739 0.307924 -4.754608 -0.109225 -0.002657 -105.237587 -30.016148 41.756416 -8.796510 7.362350 14.465058 -19.176994 12.708698 -32.548935 4.754608 0.109225 -0.002676 105.832336 36.130775 27.529531 2.358223 -0.163176 -5.259913 11.170778 -2.337316 -18.248182 6.397007 12.488847 -56.987942 -5.245697 23.774860 -32.983765 -82.586845 106.734428 65.589111 -12.051449 -27.124220 -29.496677 27.452486 17.118542 -0.289575 -3.538950 29.179565 -2.912974 
11.177648 44.414219 46.545891 -1.572508 1.005481 -94.480721 53.581795 2.827004 10.790180 -20.839844 0.000000 0.000000 -23.532393 53.047333 52.761288 8.586096 -4.084739 0.307924 -4.754608 -0.109225 -0.002657 -105.560913 -30.359644 42.199883 -8.632600 7.593945 14.205511 -19.443142 12.951156 -33.057159 4.754608 0.109225 -0.002676 105.551079 36.470348 27.749222 2.339223 -0.156614 -5.494294 11.774455 -2.417917 -19.099817 6.514781 11.536817 -59.286221 -5.330054 23.663998 -32.623596 -73.589790 107.517288 56.173241 -12.432512 -28.432434 -29.876411 26.885809 17.186489 0.204302 -2.430209 29.873396 -3.601480 
11.227254 44.378334 47.180870 -2.226919 1.024616 -95.557411 53.964790 2.397684 10.639612 -20.839844 0.000000 0.000000 -21.886948 53.176727 55.110195 8.586096 -4.084739 0.307924 -4.754608 -0.109225 -0.002657 -105.784439 -30.732012 42.428642 -8.486932 7.744050 13.912844 -19.620419 12.924151 -33.196526 4.754608 0.109225 -0.002676 105.283554 36.841930 28.079130 2.320504 -0.147469 -5.845835 12.395583 -2.491587 -20.293758 6.817110 10.478253 -60.938519 -5.371323 23.910158 -32.161747 -67.657089 108.465446 49.511078 -12.843316 -29.785912 -30.628983 26.774960 17.318024 0.819343 -1.368893 31.122086 -4.719558 
11.271596 44.343498 47.756187 -2.686001 1.053529 -96.768166 54.215637 1.954041 10.653797 -20.839844 0.000000 0.000000 -20.879438 52.853889 56.658741 8.586096 -4.084739 0.307924 -4.754608 -0.109225 -0.002657 -105.791306 -30.989988 42.359066 -8.436616 7.814606 13.586385 -19.773180 12.701253 -33.118717 4.754608 0.109225 -0.002676 105.040169 37.127640 28.389769 2.292099 -0.137451 -6.177866 13.023339 -2.299400 -21.473385 7.207153 9.403781 -61.540577 -5.381938 24.496649 -31.471230 -65.537506 109.124329 47.040596 -13.643146 -30.691738 -30.715239 26.788076 17.225933 1.529361 -0.554576 31.974274 -5.960413 
11.306432 44.257988 48.195885 -2.959562 1.131302 -97.939331 54.305210 1.598147 10.793258 -20.839844 0.000000 0.000000 -20.172188 52.393147 57.782074 8.586096 -4.084739 0.307924 -4.754608 -0.109225 -0.002657 -105.596031 -31.198494 42.084766 -8.460447 7.690672 13.266566 -19.874903 12.441404 -32.924805 4.754608 0.109225 -0.002676 104.802284 37.317036 28.621923 2.263630 -0.138133 -6.451519 13.754257 -1.804911 -22.472868 7.959528 8.421075 -61.926964 -5.399256 26.056639 -30.746445 -64.838829 110.129257 46.722454 -15.068767 -31.353800 -29.919777 27.656696 16.952284 2.586906 0.559423 31.900398 -6.777518 
11.330182 44.173531 48.463493 -3.115885 1.170143 -98.774620 54.385715 1.451713 10.912812 -20.839844 0.000000 0.000000 -19.710541 51.974529 58.535336 8.586096 -4.084739 0.307924 -4.754608 -0.109225 -0.002657 -105.378967 -31.471483 41.881222 -8.461261 7.472145 13.071448 -19.913887 12.280849 -32.648697 4.754608 0.109225 -0.002676 104.580208 37.457127 28.817398 2.244666 -0.132069 -6.627305 14.506958 -1.193318 -23.257391 8.535287 7.805635 -62.005775 -5.429654 27.220173 -30.194057 -65.025047 110.750008 47.103676 -16.924095 -32.322582 -28.656639 30.444277 16.789368 4.243406 -0.617660 31.176685 -6.005100 
11.348660 44.137115 48.554253 -3.154881 1.101843 -99.054863 54.567211 1.497330 10.898723 -20.839844 0.000000 0.000000 -19.629694 51.766178 58.830822 8.586096 -4.084739 0.307924 -4.754608 -0.109225 -0.002657 -105.337830 -31.753239 41.993122 -8.363289 7.476331 13.155209 -19.992603 12.167515 -32.433250 4.754608 0.109225 -0.002676 104.481270 37.583157 29.050068 2.235066 -0.120312 -6.666162 14.984648 -0.697154 -23.761702 8.808406 7.609206 -61.949802 -5.462528 27.629465 -29.970137 -65.444862 110.928848 47.572575 -18.105799 -32.842323 -27.423635 33.056118 16.474134 5.442786 -2.227719 29.999943 -5.884368 
11.371884 44.140289 48.473503 -3.086376 0.965395 -98.802048 54.776882 1.590830 10.775910 -20.839844 0.000000 0.000000 -20.096693 51.929882 58.508781 8.586096 -4.084739 0.307924 -4.754608 -0.109225 -0.002657 -105.451294 -31.923922 42.338280 -8.198070 7.801903 13.450764 -20.222822 12.045804 -32.398483 4.754608 0.109225 -0.002676 104.664574 37.668171 29.375336 2.234689 -0.113798 -6.519499 14.935687 -0.518203 -23.809679 8.798685 7.805717 -61.872810 -5.463990 27.425694 -30.131113 -65.706375 110.797569 47.711376 -18.242355 -32.690514 -26.582767 34.551598 16.123926 5.722754 -3.439830 28.721054 -6.647758 
11.416219 44.178284 48.233360 -2.900702 0.838768 -98.206558 54.857662 1.581701 10.694253 -20.839844 0.000000 0.000000 -21.105385 52.386433 57.405540 8.586096 -4.084739 0.307924 -4.754608 -0.109225 -0.002657 -105.510063 -31.938160 42.605293 -8.052032 8.142536 13.768294 -20.430738 11.965556 -32.465820 4.754608 0.109225 -0.002676 105.104019 37.651814 29.653311 2.243553 -0.112670 -6.177551 14.240367 -0.708715 -23.273464 8.456944 8.382575 -61.728817 -5.420075 26.655045 -30.555449 -65.814842 110.425453 47.517323 -17.392767 -31.838568 -26.287380 34.393612 15.914845 5.029854 -4.027913 27.592548 -7.829008 
11.491696 44.226845 47.842247 -2.646755 0.819438 -97.489044 54.693928 1.450985 10.815734 -20.839844 0.000000 0.000000 -22.567173 52.865402 55.563541 8.586096 -4.084739 0.307924 -4.754608 -0.109225 -0.002657 -105.398460 -31.896967 42.632206 -7.989166 8.125682 14.031813 -20.309788 12.029332 -32.395523 4.754608 0.109225 -0.002676 105.589294 37.532566 29.755938 2.271714 -0.125072 -5.747906 13.070940 -1.201717 -22.300201 7.803174 9.316347 -61.497711 -5.396931 25.478189 -31.173824 -65.660217 109.899155 46.965137 -16.035227 -30.639532 -26.597435 33.074005 16.019325 3.705264 -4.726851 27.040960 -8.728703 
11.588292 44.159813 47.302269 -2.334310 0.956237 -96.728432 54.321980 1.270914 11.124730 -20.839844 0.000000 0.000000 -24.315708 53.071468 53.282692 8.586096 -4.084739 0.307924 -4.754608 -0.109225 -0.002657 -105.189590 -31.938618 42.559418 -7.960083 7.774702 14.323459 -19.809841 12.241600 -32.030083 4.754608 0.109225 -0.002676 105.908249 37.456989 29.683125 2.290557 -0.123269 -5.464517 11.897050 -1.827923 -21.378830 7.246664 10.377550 -61.295776 -5.369970 25.022150 -31.899992 -65.869713 109.798141 46.344913 -15.146576 -30.077024 -27.380955 32.896748 16.692673 2.892117 -6.488335 27.277308 -7.724151 
